<mxfile host="app.diagrams.net" agent="Mozilla/5.0 (X11; Linux x86_64; rv:132.0) Gecko/20100101 Firefox/132.0" version="24.8.6">
  <diagram id="07fea595-8f29-1299-0266-81d95cde20df" name="Page-1">
    <mxGraphModel dx="-1383" dy="-301" grid="1" gridSize="10" guides="1" tooltips="1" connect="1" arrows="1" fold="1" page="1" pageScale="1" pageWidth="1169" pageHeight="827" background="#FFFFFF" math="0" shadow="0">
      <root>
        <mxCell id="0" />
        <object label="main" id="1">
          <mxCell style="" parent="0" />
        </object>
        <mxCell id="727" value="" style="edgeStyle=none;html=1;fontColor=#000000;strokeWidth=3;strokeColor=#000000;" parent="1" edge="1">
          <mxGeometry width="100" height="100" relative="1" as="geometry">
            <mxPoint x="2440" y="1630" as="sourcePoint" />
            <mxPoint x="2440" y="1000" as="targetPoint" />
          </mxGeometry>
        </mxCell>
        <mxCell id="734" value="" style="edgeStyle=none;html=1;fontColor=#000000;strokeWidth=3;strokeColor=#000000;" parent="1" edge="1">
          <mxGeometry width="100" height="100" relative="1" as="geometry">
            <mxPoint x="2440" y="1630" as="sourcePoint" />
            <mxPoint x="3390" y="1630" as="targetPoint" />
          </mxGeometry>
        </mxCell>
        <mxCell id="735" value="Languages" style="text;spacingTop=-5;html=1;fontSize=18;fontStyle=0;points=[];strokeColor=none;" parent="1" vertex="1">
          <mxGeometry x="2390" y="959" width="80" height="17.5" as="geometry" />
        </mxCell>
        <mxCell id="736" value="C" style="text;spacingTop=-5;align=center;verticalAlign=middle;fontStyle=0;html=1;fontSize=18;points=[];strokeColor=none;" parent="1" vertex="1">
          <mxGeometry x="2338" y="1040" width="102" height="80" as="geometry" />
        </mxCell>
        <mxCell id="737" value="Python" style="text;spacingTop=-5;align=center;verticalAlign=middle;fontStyle=0;html=1;fontSize=18;points=[];strokeColor=none;" parent="1" vertex="1">
          <mxGeometry x="2338" y="1200" width="102" height="80" as="geometry" />
        </mxCell>
        <mxCell id="738" value="Javascript" style="text;spacingTop=-5;align=center;verticalAlign=middle;fontStyle=0;html=1;fontSize=18;points=[];strokeColor=none;" parent="1" vertex="1">
          <mxGeometry x="2338" y="1360" width="102" height="80" as="geometry" />
        </mxCell>
        <mxCell id="739" value="" style="whiteSpace=wrap;fillColor=#3333FF;gradientColor=none;gradientDirection=east;strokeColor=none;html=1;fontColor=#23445d;" parent="1" vertex="1">
          <mxGeometry x="3355.25" y="830" width="35.000000000000114" height="30.000000000000227" as="geometry" />
        </mxCell>
        <mxCell id="740" value="" style="whiteSpace=wrap;fillColor=#F08705;gradientColor=none;gradientDirection=east;strokeColor=none;html=1;fontColor=#23445d;" parent="1" vertex="1">
          <mxGeometry x="3355.2499999999995" y="990" width="35.000000000000114" height="30.000000000000227" as="geometry" />
        </mxCell>
        <mxCell id="741" value="" style="whiteSpace=wrap;fillColor=#E85642;gradientColor=none;gradientDirection=east;strokeColor=none;html=1;fontColor=#23445d;" parent="1" vertex="1">
          <mxGeometry x="3355.25" y="1030" width="35.000000000000114" height="30.000000000000114" as="geometry" />
        </mxCell>
        <mxCell id="742" value="6th Iteration" style="text;spacingTop=-5;html=1;points=[];fontSize=15;" parent="1" vertex="1">
          <mxGeometry x="3395.25" y="1030" width="80" height="20" as="geometry" />
        </mxCell>
        <mxCell id="743" value="5th Iteration" style="text;spacingTop=-5;html=1;points=[];fontSize=15;" parent="1" vertex="1">
          <mxGeometry x="3395.25" y="990" width="80" height="20" as="geometry" />
        </mxCell>
        <mxCell id="744" value="1st Iteration" style="text;spacingTop=-5;html=1;points=[];fontSize=15;" parent="1" vertex="1">
          <mxGeometry x="3395.25" y="830.0000000000001" width="80" height="20" as="geometry" />
        </mxCell>
        <mxCell id="745" value="&lt;div&gt;System Calls&lt;/div&gt;&lt;div&gt;&lt;br&gt;&lt;/div&gt;" style="text;spacingTop=-5;html=1;fontSize=18;fontStyle=0;points=[];" parent="1" vertex="1">
          <mxGeometry x="3395" y="1605" width="112.5" height="25" as="geometry" />
        </mxCell>
        <mxCell id="jt0pMsKO9WyoUpJuuKrm-898" style="edgeStyle=none;rounded=0;orthogonalLoop=1;jettySize=auto;html=1;elbow=vertical;" edge="1" parent="1" source="746">
          <mxGeometry relative="1" as="geometry">
            <mxPoint x="2480" y="1620" as="targetPoint" />
          </mxGeometry>
        </mxCell>
        <mxCell id="746" value="10" style="text;spacingTop=-5;align=center;verticalAlign=middle;fontStyle=0;html=1;fontSize=18;points=[];" parent="1" vertex="1">
          <mxGeometry x="2460" y="1632" width="40" height="20" as="geometry" />
        </mxCell>
        <mxCell id="749" value="&lt;div&gt;System Calls&amp;nbsp;&lt;/div&gt;&lt;div&gt;Comparison&lt;/div&gt;" style="text;spacingTop=-5;align=center;verticalAlign=middle;fontSize=30;fontStyle=1;html=1;points=[];" parent="1" vertex="1">
          <mxGeometry x="2437.5" y="854.5" width="802.5" height="65.5" as="geometry" />
        </mxCell>
        <mxCell id="752" value="Lua" style="text;spacingTop=-5;align=center;verticalAlign=middle;fontStyle=0;html=1;fontSize=18;points=[];strokeColor=none;" parent="1" vertex="1">
          <mxGeometry x="2338" y="1520" width="102" height="80" as="geometry" />
        </mxCell>
        <mxCell id="jt0pMsKO9WyoUpJuuKrm-897" style="edgeStyle=none;rounded=0;orthogonalLoop=1;jettySize=auto;html=1;elbow=vertical;" edge="1" parent="1" source="jt0pMsKO9WyoUpJuuKrm-755">
          <mxGeometry relative="1" as="geometry">
            <mxPoint x="2640" y="1620" as="targetPoint" />
          </mxGeometry>
        </mxCell>
        <mxCell id="jt0pMsKO9WyoUpJuuKrm-755" value="100" style="text;spacingTop=-5;align=center;verticalAlign=middle;fontStyle=0;html=1;fontSize=18;points=[];" vertex="1" parent="1">
          <mxGeometry x="2620" y="1632" width="40" height="20" as="geometry" />
        </mxCell>
        <mxCell id="jt0pMsKO9WyoUpJuuKrm-896" style="edgeStyle=none;rounded=0;orthogonalLoop=1;jettySize=auto;html=1;elbow=vertical;" edge="1" parent="1" source="jt0pMsKO9WyoUpJuuKrm-756">
          <mxGeometry relative="1" as="geometry">
            <mxPoint x="2800" y="1620" as="targetPoint" />
          </mxGeometry>
        </mxCell>
        <mxCell id="jt0pMsKO9WyoUpJuuKrm-756" value="&lt;div&gt;1000&lt;/div&gt;" style="text;spacingTop=-5;align=center;verticalAlign=middle;fontStyle=0;html=1;fontSize=18;points=[];" vertex="1" parent="1">
          <mxGeometry x="2780" y="1632" width="40" height="20" as="geometry" />
        </mxCell>
        <mxCell id="jt0pMsKO9WyoUpJuuKrm-895" style="edgeStyle=none;rounded=0;orthogonalLoop=1;jettySize=auto;html=1;elbow=vertical;" edge="1" parent="1" source="jt0pMsKO9WyoUpJuuKrm-757">
          <mxGeometry relative="1" as="geometry">
            <mxPoint x="2961" y="1620" as="targetPoint" />
          </mxGeometry>
        </mxCell>
        <mxCell id="jt0pMsKO9WyoUpJuuKrm-757" value="&lt;div&gt;10000&lt;/div&gt;" style="text;spacingTop=-5;align=center;verticalAlign=middle;fontStyle=0;html=1;fontSize=18;points=[];" vertex="1" parent="1">
          <mxGeometry x="2931" y="1632" width="60" height="18" as="geometry" />
        </mxCell>
        <mxCell id="jt0pMsKO9WyoUpJuuKrm-883" style="edgeStyle=none;rounded=0;orthogonalLoop=1;jettySize=auto;html=1;elbow=vertical;" edge="1" parent="1" source="jt0pMsKO9WyoUpJuuKrm-758">
          <mxGeometry relative="1" as="geometry">
            <mxPoint x="3280" y="1620" as="targetPoint" />
          </mxGeometry>
        </mxCell>
        <mxCell id="jt0pMsKO9WyoUpJuuKrm-758" value="&lt;div&gt;1000000&lt;/div&gt;" style="text;spacingTop=-5;align=center;verticalAlign=middle;fontStyle=0;html=1;fontSize=18;points=[];" vertex="1" parent="1">
          <mxGeometry x="3250" y="1632" width="60" height="20" as="geometry" />
        </mxCell>
        <mxCell id="jt0pMsKO9WyoUpJuuKrm-759" value="" style="whiteSpace=wrap;fillColor=#33FFFF;gradientColor=none;gradientDirection=east;strokeColor=none;html=1;fontColor=#23445d;" vertex="1" parent="1">
          <mxGeometry x="3355.25" y="870" width="35.000000000000114" height="30.000000000000227" as="geometry" />
        </mxCell>
        <mxCell id="jt0pMsKO9WyoUpJuuKrm-760" value="2nd Iteration" style="text;spacingTop=-5;html=1;points=[];fontSize=15;" vertex="1" parent="1">
          <mxGeometry x="3395.25" y="869.5000000000001" width="80" height="20" as="geometry" />
        </mxCell>
        <mxCell id="jt0pMsKO9WyoUpJuuKrm-761" value="3d Iteration" style="text;spacingTop=-5;html=1;points=[];fontSize=15;" vertex="1" parent="1">
          <mxGeometry x="3395.25" y="910.0000000000001" width="80" height="20" as="geometry" />
        </mxCell>
        <mxCell id="jt0pMsKO9WyoUpJuuKrm-762" value="" style="whiteSpace=wrap;fillColor=#33FF33;gradientColor=none;gradientDirection=east;strokeColor=none;html=1;fontColor=#23445d;" vertex="1" parent="1">
          <mxGeometry x="3355.25" y="910" width="35.000000000000114" height="30.000000000000227" as="geometry" />
        </mxCell>
        <mxCell id="jt0pMsKO9WyoUpJuuKrm-763" value="&lt;div&gt;4th Iteration&lt;/div&gt;" style="text;spacingTop=-5;html=1;points=[];fontSize=15;" vertex="1" parent="1">
          <mxGeometry x="3395.25" y="950.0000000000001" width="80" height="20" as="geometry" />
        </mxCell>
        <mxCell id="jt0pMsKO9WyoUpJuuKrm-764" value="" style="whiteSpace=wrap;fillColor=#FFFF00;gradientColor=none;gradientDirection=east;strokeColor=none;html=1;fontColor=#23445d;" vertex="1" parent="1">
          <mxGeometry x="3355.25" y="950" width="35.000000000000114" height="30.000000000000227" as="geometry" />
        </mxCell>
        <mxCell id="jt0pMsKO9WyoUpJuuKrm-796" style="edgeStyle=none;rounded=0;orthogonalLoop=1;jettySize=auto;html=1;exitX=1;exitY=0;exitDx=0;exitDy=0;elbow=vertical;" edge="1" parent="1" source="jt0pMsKO9WyoUpJuuKrm-777">
          <mxGeometry relative="1" as="geometry">
            <mxPoint x="2510.142857142857" y="1040" as="targetPoint" />
          </mxGeometry>
        </mxCell>
        <mxCell id="jt0pMsKO9WyoUpJuuKrm-777" value="" style="whiteSpace=wrap;html=1;fillColor=#3333FF;" vertex="1" parent="1">
          <mxGeometry x="2440" y="1069.75" width="70" height="20.5" as="geometry" />
        </mxCell>
        <mxCell id="jt0pMsKO9WyoUpJuuKrm-780" value="" style="whiteSpace=wrap;html=1;fillColor=#3333FF;" vertex="1" parent="1">
          <mxGeometry x="2440" y="1230" width="270" height="20.5" as="geometry" />
        </mxCell>
        <mxCell id="jt0pMsKO9WyoUpJuuKrm-781" value="" style="whiteSpace=wrap;html=1;fillColor=#3333FF;" vertex="1" parent="1">
          <mxGeometry x="2440" y="1389.75" width="350" height="20.5" as="geometry" />
        </mxCell>
        <mxCell id="jt0pMsKO9WyoUpJuuKrm-794" style="edgeStyle=none;rounded=0;orthogonalLoop=1;jettySize=auto;html=1;exitX=1;exitY=0;exitDx=0;exitDy=0;elbow=vertical;" edge="1" parent="1" source="jt0pMsKO9WyoUpJuuKrm-782" target="jt0pMsKO9WyoUpJuuKrm-806">
          <mxGeometry relative="1" as="geometry">
            <mxPoint x="2579.9310344827586" y="1520" as="targetPoint" />
          </mxGeometry>
        </mxCell>
        <mxCell id="jt0pMsKO9WyoUpJuuKrm-782" value="" style="whiteSpace=wrap;html=1;fillColor=#3333FF;" vertex="1" parent="1">
          <mxGeometry x="2440" y="1552.75" width="170" height="20.5" as="geometry" />
        </mxCell>
        <mxCell id="jt0pMsKO9WyoUpJuuKrm-797" style="edgeStyle=none;rounded=0;orthogonalLoop=1;jettySize=auto;html=1;exitX=1;exitY=1;exitDx=0;exitDy=0;elbow=vertical;" edge="1" parent="1" source="jt0pMsKO9WyoUpJuuKrm-784" target="jt0pMsKO9WyoUpJuuKrm-799">
          <mxGeometry relative="1" as="geometry">
            <mxPoint x="2650" y="1120" as="targetPoint" />
          </mxGeometry>
        </mxCell>
        <mxCell id="jt0pMsKO9WyoUpJuuKrm-784" value="" style="whiteSpace=wrap;html=1;fillColor=#33FFFF;" vertex="1" parent="1">
          <mxGeometry x="2510" y="1070" width="130" height="20.25" as="geometry" />
        </mxCell>
        <mxCell id="jt0pMsKO9WyoUpJuuKrm-885" style="edgeStyle=none;rounded=0;orthogonalLoop=1;jettySize=auto;html=1;exitX=1;exitY=1;exitDx=0;exitDy=0;elbow=vertical;" edge="1" parent="1" source="jt0pMsKO9WyoUpJuuKrm-785" target="jt0pMsKO9WyoUpJuuKrm-801">
          <mxGeometry relative="1" as="geometry" />
        </mxCell>
        <mxCell id="jt0pMsKO9WyoUpJuuKrm-785" value="" style="whiteSpace=wrap;html=1;fillColor=#33FFFF;" vertex="1" parent="1">
          <mxGeometry x="2710" y="1229.88" width="30" height="20.25" as="geometry" />
        </mxCell>
        <mxCell id="jt0pMsKO9WyoUpJuuKrm-793" style="edgeStyle=none;rounded=0;orthogonalLoop=1;jettySize=auto;html=1;exitX=1;exitY=1;exitDx=0;exitDy=0;elbow=vertical;" edge="1" parent="1" source="jt0pMsKO9WyoUpJuuKrm-786" target="jt0pMsKO9WyoUpJuuKrm-803">
          <mxGeometry relative="1" as="geometry">
            <mxPoint x="2810.2758620689656" y="1440" as="targetPoint" />
          </mxGeometry>
        </mxCell>
        <mxCell id="jt0pMsKO9WyoUpJuuKrm-889" style="edgeStyle=none;rounded=0;orthogonalLoop=1;jettySize=auto;html=1;exitX=0;exitY=0;exitDx=0;exitDy=0;elbow=vertical;" edge="1" parent="1" source="jt0pMsKO9WyoUpJuuKrm-786" target="jt0pMsKO9WyoUpJuuKrm-802">
          <mxGeometry relative="1" as="geometry" />
        </mxCell>
        <mxCell id="jt0pMsKO9WyoUpJuuKrm-786" value="" style="whiteSpace=wrap;html=1;fillColor=#33FFFF;" vertex="1" parent="1">
          <mxGeometry x="2790" y="1390" width="10" height="20.25" as="geometry" />
        </mxCell>
        <mxCell id="jt0pMsKO9WyoUpJuuKrm-795" style="edgeStyle=none;rounded=0;orthogonalLoop=1;jettySize=auto;html=1;exitX=1;exitY=1;exitDx=0;exitDy=0;elbow=vertical;" edge="1" parent="1" source="jt0pMsKO9WyoUpJuuKrm-787">
          <mxGeometry relative="1" as="geometry">
            <mxPoint x="2670" y="1590" as="targetPoint" />
          </mxGeometry>
        </mxCell>
        <mxCell id="jt0pMsKO9WyoUpJuuKrm-787" value="" style="whiteSpace=wrap;html=1;fillColor=#33FFFF;" vertex="1" parent="1">
          <mxGeometry x="2610" y="1553" width="60" height="20.25" as="geometry" />
        </mxCell>
        <mxCell id="jt0pMsKO9WyoUpJuuKrm-798" value="&lt;div&gt;40&lt;/div&gt;" style="text;html=1;align=center;verticalAlign=middle;resizable=0;points=[];autosize=1;strokeColor=none;fillColor=none;" vertex="1" parent="1">
          <mxGeometry x="2491" y="1009.5" width="40" height="30" as="geometry" />
        </mxCell>
        <mxCell id="jt0pMsKO9WyoUpJuuKrm-799" value="&lt;div&gt;130&lt;/div&gt;" style="text;html=1;align=center;verticalAlign=middle;resizable=0;points=[];autosize=1;strokeColor=none;fillColor=none;" vertex="1" parent="1">
          <mxGeometry x="2620" y="1120" width="40" height="30" as="geometry" />
        </mxCell>
        <mxCell id="jt0pMsKO9WyoUpJuuKrm-800" value="476" style="text;html=1;align=center;verticalAlign=middle;resizable=0;points=[];autosize=1;strokeColor=none;fillColor=none;" vertex="1" parent="1">
          <mxGeometry x="2690" y="1170" width="40" height="30" as="geometry" />
        </mxCell>
        <mxCell id="jt0pMsKO9WyoUpJuuKrm-801" value="566" style="text;html=1;align=center;verticalAlign=middle;resizable=0;points=[];autosize=1;strokeColor=none;fillColor=none;" vertex="1" parent="1">
          <mxGeometry x="2720" y="1279" width="40" height="30" as="geometry" />
        </mxCell>
        <mxCell id="jt0pMsKO9WyoUpJuuKrm-802" value="957" style="text;html=1;align=center;verticalAlign=middle;resizable=0;points=[];autosize=1;strokeColor=none;fillColor=none;" vertex="1" parent="1">
          <mxGeometry x="2770" y="1330" width="40" height="30" as="geometry" />
        </mxCell>
        <mxCell id="jt0pMsKO9WyoUpJuuKrm-803" value="1040" style="text;html=1;align=center;verticalAlign=middle;resizable=0;points=[];autosize=1;strokeColor=none;fillColor=none;" vertex="1" parent="1">
          <mxGeometry x="2775" y="1440" width="50" height="30" as="geometry" />
        </mxCell>
        <mxCell id="jt0pMsKO9WyoUpJuuKrm-805" value="173" style="text;html=1;align=center;verticalAlign=middle;resizable=0;points=[];autosize=1;strokeColor=none;fillColor=none;" vertex="1" parent="1">
          <mxGeometry x="2650" y="1580" width="40" height="30" as="geometry" />
        </mxCell>
        <mxCell id="jt0pMsKO9WyoUpJuuKrm-806" value="83" style="text;html=1;align=center;verticalAlign=middle;resizable=0;points=[];autosize=1;strokeColor=none;fillColor=none;" vertex="1" parent="1">
          <mxGeometry x="2590" y="1488" width="40" height="30" as="geometry" />
        </mxCell>
        <mxCell id="jt0pMsKO9WyoUpJuuKrm-811" style="edgeStyle=none;rounded=0;orthogonalLoop=1;jettySize=auto;html=1;exitX=1;exitY=0;exitDx=0;exitDy=0;elbow=vertical;" edge="1" parent="1" source="jt0pMsKO9WyoUpJuuKrm-807" target="jt0pMsKO9WyoUpJuuKrm-812">
          <mxGeometry relative="1" as="geometry">
            <mxPoint x="2810.142857142857" y="1040" as="targetPoint" />
          </mxGeometry>
        </mxCell>
        <mxCell id="jt0pMsKO9WyoUpJuuKrm-807" value="" style="whiteSpace=wrap;html=1;fillColor=#33FF33;" vertex="1" parent="1">
          <mxGeometry x="2640" y="1070" width="160" height="20.25" as="geometry" />
        </mxCell>
        <mxCell id="jt0pMsKO9WyoUpJuuKrm-886" style="edgeStyle=none;rounded=0;orthogonalLoop=1;jettySize=auto;html=1;exitX=1;exitY=0;exitDx=0;exitDy=0;elbow=vertical;" edge="1" parent="1" source="jt0pMsKO9WyoUpJuuKrm-808">
          <mxGeometry relative="1" as="geometry">
            <mxPoint x="2829.9302325581393" y="1200" as="targetPoint" />
          </mxGeometry>
        </mxCell>
        <mxCell id="jt0pMsKO9WyoUpJuuKrm-808" value="" style="whiteSpace=wrap;html=1;fillColor=#33FF33;" vertex="1" parent="1">
          <mxGeometry x="2740" y="1229.88" width="90" height="20.25" as="geometry" />
        </mxCell>
        <mxCell id="jt0pMsKO9WyoUpJuuKrm-816" style="edgeStyle=none;rounded=0;orthogonalLoop=1;jettySize=auto;html=1;exitX=1;exitY=0;exitDx=0;exitDy=0;elbow=vertical;" edge="1" parent="1" source="jt0pMsKO9WyoUpJuuKrm-809" target="jt0pMsKO9WyoUpJuuKrm-818">
          <mxGeometry relative="1" as="geometry">
            <mxPoint x="2860" y="1370" as="targetPoint" />
          </mxGeometry>
        </mxCell>
        <mxCell id="jt0pMsKO9WyoUpJuuKrm-809" value="" style="whiteSpace=wrap;html=1;fillColor=#33FF33;" vertex="1" parent="1">
          <mxGeometry x="2800" y="1390" width="30" height="20.25" as="geometry" />
        </mxCell>
        <mxCell id="jt0pMsKO9WyoUpJuuKrm-819" style="edgeStyle=none;rounded=0;orthogonalLoop=1;jettySize=auto;html=1;exitX=1;exitY=0;exitDx=0;exitDy=0;elbow=vertical;" edge="1" parent="1" source="jt0pMsKO9WyoUpJuuKrm-810" target="jt0pMsKO9WyoUpJuuKrm-820">
          <mxGeometry relative="1" as="geometry">
            <mxPoint x="2820.142857142857" y="1520" as="targetPoint" />
          </mxGeometry>
        </mxCell>
        <mxCell id="jt0pMsKO9WyoUpJuuKrm-810" value="" style="whiteSpace=wrap;html=1;fillColor=#33FF33;" vertex="1" parent="1">
          <mxGeometry x="2670" y="1552.75" width="130" height="20.25" as="geometry" />
        </mxCell>
        <mxCell id="jt0pMsKO9WyoUpJuuKrm-812" value="1030" style="text;html=1;align=center;verticalAlign=middle;resizable=0;points=[];autosize=1;strokeColor=none;fillColor=none;" vertex="1" parent="1">
          <mxGeometry x="2775" y="1010" width="50" height="30" as="geometry" />
        </mxCell>
        <mxCell id="jt0pMsKO9WyoUpJuuKrm-814" value="1466" style="text;html=1;align=center;verticalAlign=middle;resizable=0;points=[];autosize=1;strokeColor=none;fillColor=none;" vertex="1" parent="1">
          <mxGeometry x="2801" y="1169" width="50" height="30" as="geometry" />
        </mxCell>
        <mxCell id="jt0pMsKO9WyoUpJuuKrm-818" value="&lt;div&gt;1978&lt;/div&gt;" style="text;html=1;align=center;verticalAlign=middle;resizable=0;points=[];autosize=1;strokeColor=none;fillColor=none;" vertex="1" parent="1">
          <mxGeometry x="2810" y="1330" width="50" height="30" as="geometry" />
        </mxCell>
        <mxCell id="jt0pMsKO9WyoUpJuuKrm-820" value="1073" style="text;html=1;align=center;verticalAlign=middle;resizable=0;points=[];autosize=1;strokeColor=none;fillColor=none;" vertex="1" parent="1">
          <mxGeometry x="2775" y="1488" width="50" height="30" as="geometry" />
        </mxCell>
        <mxCell id="jt0pMsKO9WyoUpJuuKrm-826" style="edgeStyle=none;rounded=0;orthogonalLoop=1;jettySize=auto;html=1;exitX=1;exitY=1;exitDx=0;exitDy=0;elbow=vertical;" edge="1" parent="1" source="jt0pMsKO9WyoUpJuuKrm-821" target="jt0pMsKO9WyoUpJuuKrm-827">
          <mxGeometry relative="1" as="geometry">
            <mxPoint x="2970" y="1120" as="targetPoint" />
          </mxGeometry>
        </mxCell>
        <mxCell id="jt0pMsKO9WyoUpJuuKrm-821" value="" style="whiteSpace=wrap;html=1;fillColor=#FFFF00;" vertex="1" parent="1">
          <mxGeometry x="2800" y="1070" width="160" height="20.25" as="geometry" />
        </mxCell>
        <mxCell id="jt0pMsKO9WyoUpJuuKrm-828" style="edgeStyle=none;rounded=0;orthogonalLoop=1;jettySize=auto;html=1;exitX=1;exitY=1;exitDx=0;exitDy=0;elbow=vertical;" edge="1" parent="1" source="jt0pMsKO9WyoUpJuuKrm-823" target="jt0pMsKO9WyoUpJuuKrm-829">
          <mxGeometry relative="1" as="geometry">
            <mxPoint x="3055.741379310345" y="1281" as="targetPoint" />
          </mxGeometry>
        </mxCell>
        <mxCell id="jt0pMsKO9WyoUpJuuKrm-823" value="" style="whiteSpace=wrap;html=1;fillColor=#FFFF00;" vertex="1" parent="1">
          <mxGeometry x="2830" y="1229.87" width="140" height="20.25" as="geometry" />
        </mxCell>
        <mxCell id="jt0pMsKO9WyoUpJuuKrm-830" style="edgeStyle=none;rounded=0;orthogonalLoop=1;jettySize=auto;html=1;exitX=1;exitY=1;exitDx=0;exitDy=0;elbow=vertical;" edge="1" parent="1" source="jt0pMsKO9WyoUpJuuKrm-824" target="jt0pMsKO9WyoUpJuuKrm-831">
          <mxGeometry relative="1" as="geometry">
            <mxPoint x="3019" y="1440" as="targetPoint" />
          </mxGeometry>
        </mxCell>
        <mxCell id="jt0pMsKO9WyoUpJuuKrm-824" value="" style="whiteSpace=wrap;html=1;fillColor=#FFFF00;" vertex="1" parent="1">
          <mxGeometry x="2830" y="1389.88" width="150" height="20.25" as="geometry" />
        </mxCell>
        <mxCell id="jt0pMsKO9WyoUpJuuKrm-832" style="edgeStyle=none;rounded=0;orthogonalLoop=1;jettySize=auto;html=1;exitX=1;exitY=1;exitDx=0;exitDy=0;elbow=vertical;" edge="1" parent="1" source="jt0pMsKO9WyoUpJuuKrm-825">
          <mxGeometry relative="1" as="geometry">
            <mxPoint x="2960" y="1590" as="targetPoint" />
          </mxGeometry>
        </mxCell>
        <mxCell id="jt0pMsKO9WyoUpJuuKrm-825" value="" style="whiteSpace=wrap;html=1;fillColor=#FFFF00;" vertex="1" parent="1">
          <mxGeometry x="2800" y="1553" width="160" height="20.25" as="geometry" />
        </mxCell>
        <mxCell id="jt0pMsKO9WyoUpJuuKrm-827" value="10030" style="text;html=1;align=center;verticalAlign=middle;resizable=0;points=[];autosize=1;strokeColor=none;fillColor=none;" vertex="1" parent="1">
          <mxGeometry x="2931" y="1120" width="60" height="30" as="geometry" />
        </mxCell>
        <mxCell id="jt0pMsKO9WyoUpJuuKrm-829" value="10466" style="text;html=1;align=center;verticalAlign=middle;resizable=0;points=[];autosize=1;strokeColor=none;fillColor=none;" vertex="1" parent="1">
          <mxGeometry x="2941" y="1279" width="60" height="30" as="geometry" />
        </mxCell>
        <mxCell id="jt0pMsKO9WyoUpJuuKrm-831" value="11081" style="text;html=1;align=center;verticalAlign=middle;resizable=0;points=[];autosize=1;strokeColor=none;fillColor=none;" vertex="1" parent="1">
          <mxGeometry x="2950" y="1440" width="60" height="30" as="geometry" />
        </mxCell>
        <mxCell id="jt0pMsKO9WyoUpJuuKrm-833" value="10073" style="text;html=1;align=center;verticalAlign=middle;resizable=0;points=[];autosize=1;strokeColor=none;fillColor=none;" vertex="1" parent="1">
          <mxGeometry x="2931" y="1580" width="60" height="30" as="geometry" />
        </mxCell>
        <mxCell id="jt0pMsKO9WyoUpJuuKrm-838" style="edgeStyle=none;rounded=0;orthogonalLoop=1;jettySize=auto;html=1;exitX=1;exitY=0;exitDx=0;exitDy=0;elbow=vertical;" edge="1" parent="1" source="jt0pMsKO9WyoUpJuuKrm-834" target="jt0pMsKO9WyoUpJuuKrm-842">
          <mxGeometry relative="1" as="geometry">
            <mxPoint x="3130" y="1040" as="targetPoint" />
          </mxGeometry>
        </mxCell>
        <mxCell id="jt0pMsKO9WyoUpJuuKrm-834" value="" style="whiteSpace=wrap;html=1;fillColor=#F08705;" vertex="1" parent="1">
          <mxGeometry x="2960" y="1070" width="160" height="20.25" as="geometry" />
        </mxCell>
        <mxCell id="jt0pMsKO9WyoUpJuuKrm-839" style="edgeStyle=none;rounded=0;orthogonalLoop=1;jettySize=auto;html=1;exitX=1;exitY=0;exitDx=0;exitDy=0;elbow=vertical;" edge="1" parent="1" source="jt0pMsKO9WyoUpJuuKrm-835" target="jt0pMsKO9WyoUpJuuKrm-843">
          <mxGeometry relative="1" as="geometry">
            <mxPoint x="3175.741379310345" y="1201" as="targetPoint" />
          </mxGeometry>
        </mxCell>
        <mxCell id="jt0pMsKO9WyoUpJuuKrm-835" value="" style="whiteSpace=wrap;html=1;fillColor=#F08705;" vertex="1" parent="1">
          <mxGeometry x="2970" y="1230" width="160" height="20.25" as="geometry" />
        </mxCell>
        <mxCell id="jt0pMsKO9WyoUpJuuKrm-840" style="edgeStyle=none;rounded=0;orthogonalLoop=1;jettySize=auto;html=1;exitX=1;exitY=0;exitDx=0;exitDy=0;elbow=vertical;" edge="1" parent="1" source="jt0pMsKO9WyoUpJuuKrm-836">
          <mxGeometry relative="1" as="geometry">
            <mxPoint x="3139.241379310345" y="1360" as="targetPoint" />
          </mxGeometry>
        </mxCell>
        <mxCell id="jt0pMsKO9WyoUpJuuKrm-836" value="" style="whiteSpace=wrap;html=1;fillColor=#F08705;" vertex="1" parent="1">
          <mxGeometry x="2980" y="1390" width="159" height="20.25" as="geometry" />
        </mxCell>
        <mxCell id="jt0pMsKO9WyoUpJuuKrm-841" style="edgeStyle=none;rounded=0;orthogonalLoop=1;jettySize=auto;html=1;exitX=1;exitY=0;exitDx=0;exitDy=0;elbow=vertical;" edge="1" parent="1" source="jt0pMsKO9WyoUpJuuKrm-837" target="jt0pMsKO9WyoUpJuuKrm-845">
          <mxGeometry relative="1" as="geometry">
            <mxPoint x="3088.8965517241377" y="1520" as="targetPoint" />
          </mxGeometry>
        </mxCell>
        <mxCell id="jt0pMsKO9WyoUpJuuKrm-837" value="" style="whiteSpace=wrap;html=1;fillColor=#F08705;" vertex="1" parent="1">
          <mxGeometry x="2960" y="1552.75" width="160" height="20.25" as="geometry" />
        </mxCell>
        <mxCell id="jt0pMsKO9WyoUpJuuKrm-842" value="100030" style="text;html=1;align=center;verticalAlign=middle;resizable=0;points=[];autosize=1;strokeColor=none;fillColor=none;" vertex="1" parent="1">
          <mxGeometry x="3091" y="1009.5" width="60" height="30" as="geometry" />
        </mxCell>
        <mxCell id="jt0pMsKO9WyoUpJuuKrm-843" value="100466" style="text;html=1;align=center;verticalAlign=middle;resizable=0;points=[];autosize=1;strokeColor=none;fillColor=none;" vertex="1" parent="1">
          <mxGeometry x="3100" y="1169" width="60" height="30" as="geometry" />
        </mxCell>
        <mxCell id="jt0pMsKO9WyoUpJuuKrm-844" value="101201" style="text;html=1;align=center;verticalAlign=middle;resizable=0;points=[];autosize=1;strokeColor=none;fillColor=none;" vertex="1" parent="1">
          <mxGeometry x="3111" y="1328" width="60" height="30" as="geometry" />
        </mxCell>
        <mxCell id="jt0pMsKO9WyoUpJuuKrm-845" value="100073" style="text;html=1;align=center;verticalAlign=middle;resizable=0;points=[];autosize=1;strokeColor=none;fillColor=none;" vertex="1" parent="1">
          <mxGeometry x="3091" y="1488" width="60" height="30" as="geometry" />
        </mxCell>
        <mxCell id="jt0pMsKO9WyoUpJuuKrm-846" value="" style="whiteSpace=wrap;html=1;fillColor=#E85642;" vertex="1" parent="1">
          <mxGeometry x="3120" y="1070" width="160" height="20.25" as="geometry" />
        </mxCell>
        <mxCell id="jt0pMsKO9WyoUpJuuKrm-854" style="edgeStyle=none;rounded=0;orthogonalLoop=1;jettySize=auto;html=1;exitX=1;exitY=1;exitDx=0;exitDy=0;elbow=vertical;entryX=0.571;entryY=0.033;entryDx=0;entryDy=0;entryPerimeter=0;" edge="1" parent="1" source="jt0pMsKO9WyoUpJuuKrm-847" target="jt0pMsKO9WyoUpJuuKrm-855">
          <mxGeometry relative="1" as="geometry">
            <mxPoint x="3330" y="1270" as="targetPoint" />
          </mxGeometry>
        </mxCell>
        <mxCell id="jt0pMsKO9WyoUpJuuKrm-847" value="" style="whiteSpace=wrap;html=1;fillColor=#E85642;" vertex="1" parent="1">
          <mxGeometry x="3130" y="1230" width="160" height="20.25" as="geometry" />
        </mxCell>
        <mxCell id="jt0pMsKO9WyoUpJuuKrm-856" style="edgeStyle=none;rounded=0;orthogonalLoop=1;jettySize=auto;html=1;exitX=1;exitY=1;exitDx=0;exitDy=0;elbow=vertical;" edge="1" parent="1" source="jt0pMsKO9WyoUpJuuKrm-848" target="jt0pMsKO9WyoUpJuuKrm-859">
          <mxGeometry relative="1" as="geometry">
            <mxPoint x="3259.190476190476" y="1440" as="targetPoint" />
          </mxGeometry>
        </mxCell>
        <mxCell id="jt0pMsKO9WyoUpJuuKrm-848" value="" style="whiteSpace=wrap;html=1;fillColor=#E85642;" vertex="1" parent="1">
          <mxGeometry x="3139" y="1389.75" width="161" height="20.25" as="geometry" />
        </mxCell>
        <mxCell id="jt0pMsKO9WyoUpJuuKrm-860" style="edgeStyle=none;rounded=0;orthogonalLoop=1;jettySize=auto;html=1;exitX=1;exitY=1;exitDx=0;exitDy=0;elbow=vertical;entryX=0.571;entryY=0.333;entryDx=0;entryDy=0;entryPerimeter=0;" edge="1" parent="1" source="jt0pMsKO9WyoUpJuuKrm-849" target="jt0pMsKO9WyoUpJuuKrm-862">
          <mxGeometry relative="1" as="geometry">
            <mxPoint x="3209" y="1590" as="targetPoint" />
          </mxGeometry>
        </mxCell>
        <mxCell id="jt0pMsKO9WyoUpJuuKrm-849" value="" style="whiteSpace=wrap;html=1;fillColor=#E85642;" vertex="1" parent="1">
          <mxGeometry x="3120" y="1552.75" width="160" height="20.25" as="geometry" />
        </mxCell>
        <mxCell id="jt0pMsKO9WyoUpJuuKrm-853" value="1000030" style="text;html=1;align=center;verticalAlign=middle;resizable=0;points=[];autosize=1;strokeColor=none;fillColor=none;" vertex="1" parent="1">
          <mxGeometry x="3241" y="1110" width="70" height="30" as="geometry" />
        </mxCell>
        <mxCell id="jt0pMsKO9WyoUpJuuKrm-855" value="1000466" style="text;html=1;align=center;verticalAlign=middle;resizable=0;points=[];autosize=1;strokeColor=none;fillColor=none;" vertex="1" parent="1">
          <mxGeometry x="3250" y="1279" width="70" height="30" as="geometry" />
        </mxCell>
        <mxCell id="jt0pMsKO9WyoUpJuuKrm-859" value="1002533" style="text;html=1;align=center;verticalAlign=middle;resizable=0;points=[];autosize=1;strokeColor=none;fillColor=none;" vertex="1" parent="1">
          <mxGeometry x="3270" y="1440" width="70" height="30" as="geometry" />
        </mxCell>
        <mxCell id="jt0pMsKO9WyoUpJuuKrm-862" value="1000073" style="text;html=1;align=center;verticalAlign=middle;resizable=0;points=[];autosize=1;strokeColor=none;fillColor=none;" vertex="1" parent="1">
          <mxGeometry x="3240" y="1580" width="70" height="30" as="geometry" />
        </mxCell>
        <mxCell id="jt0pMsKO9WyoUpJuuKrm-894" style="edgeStyle=none;rounded=0;orthogonalLoop=1;jettySize=auto;html=1;elbow=vertical;" edge="1" parent="1" source="jt0pMsKO9WyoUpJuuKrm-865">
          <mxGeometry relative="1" as="geometry">
            <mxPoint x="3121" y="1620" as="targetPoint" />
          </mxGeometry>
        </mxCell>
        <mxCell id="jt0pMsKO9WyoUpJuuKrm-865" value="&lt;div&gt;100000&lt;/div&gt;" style="text;spacingTop=-5;align=center;verticalAlign=middle;fontStyle=0;html=1;fontSize=18;points=[];" vertex="1" parent="1">
          <mxGeometry x="3091" y="1632" width="60" height="20" as="geometry" />
        </mxCell>
        <mxCell id="jt0pMsKO9WyoUpJuuKrm-882" style="edgeStyle=none;rounded=0;orthogonalLoop=1;jettySize=auto;html=1;exitX=1;exitY=0;exitDx=0;exitDy=0;entryX=0.502;entryY=1;entryDx=0;entryDy=0;entryPerimeter=0;elbow=vertical;" edge="1" parent="1" source="jt0pMsKO9WyoUpJuuKrm-780" target="jt0pMsKO9WyoUpJuuKrm-800">
          <mxGeometry relative="1" as="geometry" />
        </mxCell>
        <mxCell id="jt0pMsKO9WyoUpJuuKrm-884" style="edgeStyle=none;rounded=0;orthogonalLoop=1;jettySize=auto;html=1;exitX=1;exitY=1;exitDx=0;exitDy=0;entryX=0.572;entryY=0;entryDx=0;entryDy=0;entryPerimeter=0;elbow=vertical;" edge="1" parent="1" source="jt0pMsKO9WyoUpJuuKrm-846" target="jt0pMsKO9WyoUpJuuKrm-853">
          <mxGeometry relative="1" as="geometry" />
        </mxCell>
        <object label="background" id="jt0pMsKO9WyoUpJuuKrm-901">
          <mxCell parent="0" />
        </object>
      </root>
    </mxGraphModel>
  </diagram>
</mxfile>
